# xmcd CD database file
#
# Track frame offsets:
#	150
#	17720
#	40767
#	59463
#	75204
#	88359
#	113965
#	124363
#	143207
#	155504
#	174136
#	186061
#	208146
#
# Disc length: 3130 seconds
#
# Revision: 0
# Processed by: cddbd v1.5.2PL0 Copyright (c) Steve Scherf et al.
# Submitted via: CDex 1.70beta2
#
DISCID=ad0c380d
DTITLE=Carte Blanche - Waiting For Love
DYEAR=2016
DGENRE=Jazz
TTITLE0=Meglio Stasera
TTITLE1=Smile
TTITLE2=L'Accordeoniste
TTITLE3=Manha De Carnaval
TTITLE4=Tu Vuo Fa L'Americano
TTITLE5=Young In Love
TTITLE6=Chiribim Chiribom
TTITLE7=Our Love Is Here To Stay
TTITLE8=La Vie, L'Amour
TTITLE9=Moscow Nights
TTITLE10=Tumbalalaika
TTITLE11=Feira De Mangaio
TTITLE12=En Attendant L'Amour (Waiting for Love)
EXTD=YEAR: 2016
EXTT0=
EXTT1=
EXTT2=
EXTT3=
EXTT4=
EXTT5=
EXTT6=
EXTT7=
EXTT8=
EXTT9=
EXTT10=
EXTT11=
EXTT12=
PLAYORDER=
